<mxfile host="app.diagrams.net" modified="2023-10-22T12:14:32.054Z" agent="Mozilla/5.0 (Macintosh; Intel Mac OS X 10_15_7) AppleWebKit/537.36 (KHTML, like Gecko) Chrome/118.0.0.0 Safari/537.36" version="22.0.6" etag="8chE4S23O3Q1sGmbylmn" type="github">
  <diagram name="Page-1" id="eOPu_koFCaGJ7ZvN9b8N">
    <mxGraphModel>
      <root>
        <mxCell id="0" />
        <mxCell id="1" parent="0" />
      </root>
    </mxGraphModel>
  </diagram>
</mxfile>
